<svg width="24" height="24" viewBox="0 0 24 24" fill="none" xmlns="http://www.w3.org/2000/svg">
  <style>
    .icon-shape { 
      fill: #141414;
    }
    @media (prefers-color-scheme: dark) {
      .icon-shape { 
        fill: #ffffff;
      }
    }
  </style>
  <g clip-path="url(#clip0_2074_4155)">
    <path 
      class="icon-shape"
      fill-rule="evenodd" 
      clip-rule="evenodd" 
      d="M15.9038 12.5934L20.1009 10.7691C20.6668 10.5181 21.0205 9.9453 20.9912 9.32694C20.962 8.70857 20.5558 8.1717 19.9688 7.97531L4.96125 3.075C4.42616 2.9035 3.84009 3.04544 3.44276 3.44276C3.04544 3.84009 2.9035 4.42616 3.075 4.96125L7.97531 19.9688C8.16472 20.5618 8.7042 20.9737 9.32625 21H9.40031C9.99558 21.0019 10.5344 20.648 10.7691 20.1009L12.5934 15.9038L17.25 20.5603C17.5313 20.8417 17.9129 20.9998 18.3108 20.9998C18.7087 20.9998 19.0902 20.8417 19.3716 20.5603L20.5603 19.3716C20.8417 19.0902 20.9998 18.7087 20.9998 18.3108C20.9998 17.9129 20.8417 17.5313 20.5603 17.25L15.9038 12.5934ZM9.39 19.5084L9.39563 19.5037L9.39 19.5084ZM18.3103 19.5L13.6547 14.8434C13.3037 14.4919 12.8014 14.337 12.3133 14.4298C11.8253 14.5225 11.4148 14.8508 11.2172 15.3066L9.39656 19.4925L4.5 4.5L19.4878 9.39469L15.3028 11.2144C14.8471 11.412 14.5187 11.8225 14.426 12.3105C14.3333 12.7986 14.4882 13.3008 14.8397 13.6519L19.5 18.3103L18.3103 19.5ZM8.25 2.25V1.5C8.25 1.08579 8.58579 0.75 9 0.75C9.41421 0.75 9.75 1.08579 9.75 1.5V2.25C9.75 2.66421 9.41421 3 9 3C8.58579 3 8.25 2.66421 8.25 2.25ZM0.75 9C0.75 8.58579 1.08579 8.25 1.5 8.25H2.25C2.66421 8.25 3 8.58579 3 9C3 9.41421 2.66421 9.75 2.25 9.75H1.5C1.08579 9.75 0.75 9.41421 0.75 9ZM11.3297 2.66438L12.0797 1.16437C12.265 0.793913 12.7156 0.643858 13.0861 0.829219C13.4566 1.01458 13.6066 1.46516 13.4213 1.83563L12.6713 3.33562C12.5513 3.57527 12.3127 3.73275 12.0452 3.74873C11.7777 3.76471 11.522 3.63677 11.3744 3.4131C11.2268 3.18944 11.2098 2.90402 11.3297 2.66438ZM3.67125 11.6644C3.7604 11.8424 3.77511 12.0485 3.71216 12.2374C3.6492 12.4262 3.51374 12.5823 3.33562 12.6713L1.83563 13.4213C1.46516 13.6066 1.01458 13.4566 0.829219 13.0861C0.643858 12.7156 0.793913 12.265 1.16437 12.0797L2.66438 11.3297C2.84226 11.2405 3.04832 11.2256 3.23716 11.2884C3.42601 11.3512 3.58217 11.4864 3.67125 11.6644Z" 
    />
  </g>
  <defs>
    <clipPath id="clip0_2074_4155">
      <rect width="24" height="24" fill="white"/>
    </clipPath>
  </defs>
</svg>